<svg xmlns="http://www.w3.org/2000/svg" width="860" height="576" viewBox="0 0 860 576" role="img" aria-label="Bulk decode benchmark: vlen versus LEB128, prost, vint64, and stream-vbyte across three value distributions">
<style>text{font-family:-apple-system, 'Segoe UI', Helvetica, Arial, sans-serif;}.t1{fill:#ffffff;}.t2{fill:#c3c2b7;}</style>
<text x="0" y="20" class="t1" font-size="17" font-weight="600">Bulk decode &#183; 1,024 u32 values &#183; lower is better</text>
<text x="0" y="40" class="t2" font-size="12.5">benches/comparison.rs &#183; each codec through its fastest in-memory API &#183; Apple M-series &#183; criterion medians</text>
<text x="0" y="76" class="t1" font-size="13.5" font-weight="600">Small values (all one-byte)</text>
<text x="128" y="104.0" class="t2" font-size="12.5" text-anchor="end">vlen</text>
<path d="M140,92.0 h25 a4,4 0 0 1 4,4 v8 a4,4 0 0 1 -4,4 h-25 z" fill="#3987e5"/>
<text x="177" y="104.0" class="t1" font-size="12.5" font-weight="600">0.13 µs</text>
<text x="128" y="128.0" class="t2" font-size="12.5" text-anchor="end">LEB128</text>
<path d="M140,116.0 h395 a4,4 0 0 1 4,4 v8 a4,4 0 0 1 -4,4 h-395 z" fill="#d95926"/>
<text x="547" y="128.0" class="t1" font-size="12.5" font-weight="600">1.78 µs</text>
<text x="128" y="152.0" class="t2" font-size="12.5" text-anchor="end">prost</text>
<path d="M140,140.0 h393 a4,4 0 0 1 4,4 v8 a4,4 0 0 1 -4,4 h-393 z" fill="#199e70"/>
<text x="545" y="152.0" class="t1" font-size="12.5" font-weight="600">1.77 µs</text>
<text x="128" y="176.0" class="t2" font-size="12.5" text-anchor="end">vint64</text>
<path d="M140,164.0 h491 a4,4 0 0 1 4,4 v8 a4,4 0 0 1 -4,4 h-491 z" fill="#c98500"/>
<text x="643" y="176.0" class="t1" font-size="12.5" font-weight="600">2.21 µs</text>
<text x="128" y="200.0" class="t2" font-size="12.5" text-anchor="end">stream-vbyte</text>
<path d="M140,188.0 h263 a4,4 0 0 1 4,4 v8 a4,4 0 0 1 -4,4 h-263 z" fill="#d55181"/>
<text x="415" y="200.0" class="t1" font-size="12.5" font-weight="600">1.19 µs</text>
<text x="0" y="248" class="t1" font-size="13.5" font-weight="600">Mixed sizes (periodic)</text>
<text x="128" y="276.0" class="t2" font-size="12.5" text-anchor="end">vlen</text>
<path d="M140,264.0 h180 a4,4 0 0 1 4,4 v8 a4,4 0 0 1 -4,4 h-180 z" fill="#3987e5"/>
<text x="332" y="276.0" class="t1" font-size="12.5" font-weight="600">0.82 µs</text>
<text x="128" y="300.0" class="t2" font-size="12.5" text-anchor="end">LEB128</text>
<path d="M140,288.0 h523 a4,4 0 0 1 4,4 v8 a4,4 0 0 1 -4,4 h-523 z" fill="#d95926"/>
<text x="675" y="300.0" class="t1" font-size="12.5" font-weight="600">2.35 µs</text>
<text x="128" y="324.0" class="t2" font-size="12.5" text-anchor="end">prost</text>
<path d="M140,312.0 h440 a4,4 0 0 1 4,4 v8 a4,4 0 0 1 -4,4 h-440 z" fill="#199e70"/>
<text x="592" y="324.0" class="t1" font-size="12.5" font-weight="600">1.98 µs</text>
<text x="128" y="348.0" class="t2" font-size="12.5" text-anchor="end">vint64</text>
<path d="M140,336.0 h507 a4,4 0 0 1 4,4 v8 a4,4 0 0 1 -4,4 h-507 z" fill="#c98500"/>
<text x="659" y="348.0" class="t1" font-size="12.5" font-weight="600">2.28 µs</text>
<text x="128" y="372.0" class="t2" font-size="12.5" text-anchor="end">stream-vbyte</text>
<path d="M140,360.0 h328 a4,4 0 0 1 4,4 v8 a4,4 0 0 1 -4,4 h-328 z" fill="#d55181"/>
<text x="480" y="372.0" class="t1" font-size="12.5" font-weight="600">1.48 µs</text>
<text x="0" y="420" class="t1" font-size="13.5" font-weight="600">Random sizes (unpredictable)</text>
<text x="128" y="448.0" class="t2" font-size="12.5" text-anchor="end">vlen</text>
<path d="M140,436.0 h274 a4,4 0 0 1 4,4 v8 a4,4 0 0 1 -4,4 h-274 z" fill="#3987e5"/>
<text x="426" y="448.0" class="t1" font-size="12.5" font-weight="600">1.24 µs</text>
<text x="128" y="472.0" class="t2" font-size="12.5" text-anchor="end">LEB128</text>
<path d="M140,460.0 h628 a4,4 0 0 1 4,4 v8 a4,4 0 0 1 -4,4 h-628 z" fill="#d95926"/>
<text x="780" y="472.0" class="t1" font-size="12.5" font-weight="600">2.82 µs</text>
<text x="128" y="496.0" class="t2" font-size="12.5" text-anchor="end">prost</text>
<path d="M140,484.0 h429 a4,4 0 0 1 4,4 v8 a4,4 0 0 1 -4,4 h-429 z" fill="#199e70"/>
<text x="581" y="496.0" class="t1" font-size="12.5" font-weight="600">1.93 µs</text>
<text x="128" y="520.0" class="t2" font-size="12.5" text-anchor="end">vint64</text>
<path d="M140,508.0 h563 a4,4 0 0 1 4,4 v8 a4,4 0 0 1 -4,4 h-563 z" fill="#c98500"/>
<text x="715" y="520.0" class="t1" font-size="12.5" font-weight="600">2.53 µs</text>
<text x="128" y="544.0" class="t2" font-size="12.5" text-anchor="end">stream-vbyte</text>
<path d="M140,532.0 h438 a4,4 0 0 1 4,4 v8 a4,4 0 0 1 -4,4 h-438 z" fill="#d55181"/>
<text x="590" y="544.0" class="t1" font-size="12.5" font-weight="600">1.97 µs</text>
</svg>