<svg xmlns="http://www.w3.org/2000/svg" width="860" height="576" viewBox="0 0 860 576" role="img" aria-label="Bulk decode benchmark: vlen versus LEB128, prost, vint64, and stream-vbyte across three value distributions">
<style>text{font-family:-apple-system, 'Segoe UI', Helvetica, Arial, sans-serif;}.t1{fill:#0b0b0b;}.t2{fill:#52514e;}</style>
<text x="0" y="20" class="t1" font-size="17" font-weight="600">Bulk decode &#183; 1,024 u32 values &#183; lower is better</text>
<text x="0" y="40" class="t2" font-size="12.5">benches/comparison.rs &#183; each codec through its fastest in-memory API &#183; Apple M-series &#183; criterion medians</text>
<text x="0" y="76" class="t1" font-size="13.5" font-weight="600">Small values (all one-byte)</text>
<text x="128" y="104.0" class="t2" font-size="12.5" text-anchor="end">vlen</text>
<path d="M140,92.0 h26 a4,4 0 0 1 4,4 v8 a4,4 0 0 1 -4,4 h-26 z" fill="#2a78d6"/>
<text x="178" y="104.0" class="t1" font-size="12.5" font-weight="600">0.14 µs</text>
<text x="128" y="128.0" class="t2" font-size="12.5" text-anchor="end">LEB128</text>
<path d="M140,116.0 h403 a4,4 0 0 1 4,4 v8 a4,4 0 0 1 -4,4 h-403 z" fill="#eb6834"/>
<text x="555" y="128.0" class="t1" font-size="12.5" font-weight="600">1.92 µs</text>
<text x="128" y="152.0" class="t2" font-size="12.5" text-anchor="end">prost</text>
<path d="M140,140.0 h367 a4,4 0 0 1 4,4 v8 a4,4 0 0 1 -4,4 h-367 z" fill="#1baf7a"/>
<text x="519" y="152.0" class="t1" font-size="12.5" font-weight="600">1.75 µs</text>
<text x="128" y="176.0" class="t2" font-size="12.5" text-anchor="end">vint64</text>
<path d="M140,164.0 h348 a4,4 0 0 1 4,4 v8 a4,4 0 0 1 -4,4 h-348 z" fill="#eda100"/>
<text x="500" y="176.0" class="t1" font-size="12.5" font-weight="600">1.66 µs</text>
<text x="128" y="200.0" class="t2" font-size="12.5" text-anchor="end">stream-vbyte</text>
<path d="M140,188.0 h274 a4,4 0 0 1 4,4 v8 a4,4 0 0 1 -4,4 h-274 z" fill="#e87ba4"/>
<text x="426" y="200.0" class="t1" font-size="12.5" font-weight="600">1.31 µs</text>
<text x="0" y="248" class="t1" font-size="13.5" font-weight="600">Mixed sizes (periodic)</text>
<text x="128" y="276.0" class="t2" font-size="12.5" text-anchor="end">vlen</text>
<path d="M140,264.0 h181 a4,4 0 0 1 4,4 v8 a4,4 0 0 1 -4,4 h-181 z" fill="#2a78d6"/>
<text x="333" y="276.0" class="t1" font-size="12.5" font-weight="600">0.87 µs</text>
<text x="128" y="300.0" class="t2" font-size="12.5" text-anchor="end">LEB128</text>
<path d="M140,288.0 h482 a4,4 0 0 1 4,4 v8 a4,4 0 0 1 -4,4 h-482 z" fill="#eb6834"/>
<text x="634" y="300.0" class="t1" font-size="12.5" font-weight="600">2.29 µs</text>
<text x="128" y="324.0" class="t2" font-size="12.5" text-anchor="end">prost</text>
<path d="M140,312.0 h384 a4,4 0 0 1 4,4 v8 a4,4 0 0 1 -4,4 h-384 z" fill="#1baf7a"/>
<text x="536" y="324.0" class="t1" font-size="12.5" font-weight="600">1.83 µs</text>
<text x="128" y="348.0" class="t2" font-size="12.5" text-anchor="end">vint64</text>
<path d="M140,336.0 h475 a4,4 0 0 1 4,4 v8 a4,4 0 0 1 -4,4 h-475 z" fill="#eda100"/>
<text x="627" y="348.0" class="t1" font-size="12.5" font-weight="600">2.26 µs</text>
<text x="128" y="372.0" class="t2" font-size="12.5" text-anchor="end">stream-vbyte</text>
<path d="M140,360.0 h318 a4,4 0 0 1 4,4 v8 a4,4 0 0 1 -4,4 h-318 z" fill="#e87ba4"/>
<text x="470" y="372.0" class="t1" font-size="12.5" font-weight="600">1.52 µs</text>
<text x="0" y="420" class="t1" font-size="13.5" font-weight="600">Random sizes (unpredictable)</text>
<text x="128" y="448.0" class="t2" font-size="12.5" text-anchor="end">vlen</text>
<path d="M140,436.0 h246 a4,4 0 0 1 4,4 v8 a4,4 0 0 1 -4,4 h-246 z" fill="#2a78d6"/>
<text x="398" y="448.0" class="t1" font-size="12.5" font-weight="600">1.18 µs</text>
<text x="128" y="472.0" class="t2" font-size="12.5" text-anchor="end">LEB128</text>
<path d="M140,460.0 h628 a4,4 0 0 1 4,4 v8 a4,4 0 0 1 -4,4 h-628 z" fill="#eb6834"/>
<text x="780" y="472.0" class="t1" font-size="12.5" font-weight="600">2.98 µs</text>
<text x="128" y="496.0" class="t2" font-size="12.5" text-anchor="end">prost</text>
<path d="M140,484.0 h384 a4,4 0 0 1 4,4 v8 a4,4 0 0 1 -4,4 h-384 z" fill="#1baf7a"/>
<text x="536" y="496.0" class="t1" font-size="12.5" font-weight="600">1.83 µs</text>
<text x="128" y="520.0" class="t2" font-size="12.5" text-anchor="end">vint64</text>
<path d="M140,508.0 h543 a4,4 0 0 1 4,4 v8 a4,4 0 0 1 -4,4 h-543 z" fill="#eda100"/>
<text x="695" y="520.0" class="t1" font-size="12.5" font-weight="600">2.58 µs</text>
<text x="128" y="544.0" class="t2" font-size="12.5" text-anchor="end">stream-vbyte</text>
<path d="M140,532.0 h424 a4,4 0 0 1 4,4 v8 a4,4 0 0 1 -4,4 h-424 z" fill="#e87ba4"/>
<text x="576" y="544.0" class="t1" font-size="12.5" font-weight="600">2.02 µs</text>
</svg>